<?xml version="1.0" encoding="utf-8"?>
<!-- Generator: Adobe Illustrator 12.0.0, SVG Export Plug-In  -->
<!DOCTYPE svg PUBLIC "-//W3C//DTD SVG 1.1//EN" "http://www.w3.org/Graphics/SVG/1.1/DTD/svg11.dtd" [
	<!ENTITY ns_flows "http://ns.adobe.com/Flows/1.0/">
	<!ENTITY ns_svg "http://www.w3.org/2000/svg">
	<!ENTITY ns_xlink "http://www.w3.org/1999/xlink">
]>
<svg  version="1.1" xmlns="&ns_svg;" xmlns:xlink="&ns_xlink;" xmlns:a="http://ns.adobe.com/AdobeSVGViewerExtensions/3.0/"
	 width="2654" height="1205" viewBox="102 114 2654 1205" enable-background="new 102 114 2654 1205" xml:space="preserve">
<defs>
</defs>
<g>
	<defs>
		<rect id="XMLID_10_" x="127.5" y="145.606" width="2600" height="1150.5"/>
	</defs>
	<clipPath id="XMLID_12_">
		<use xlink:href="#XMLID_10_" />
	</clipPath>
	<path clip-path="url(#XMLID_12_)" fill="#231F20" d="M1328.1,970.906c17.4,22.101,25.9,47.101,23.101,86
		c-4.101,56.801-43.101,109.2-72.4,151c-13,18.601-23.9,35.4-39.8,43c-46.8,22.4-106.3-2-161.5-7.3c-2.3-2.1,4.2-4.2,7.3-7.3
		c28.5-28.4,29.7-107.3,2.1-135.3c-16.1-16.301-40.699-22.601-69.199-27.301c-32.801-5.3-71.9-17.899-99.601-7.3
		c-46.3,17.7-54.8,104.2-32.5,156.3c-18.6-8.6-25.6-14.399-32.5-27.3c-16.3-30.2-15.399-86.3-5.199-115.4
		c9-25.8,30.6-47.699,54.5-61.899c24.3-14.4,57.899-17.9,93.3-23.101c34.5-5,74.899-1.8,113.3-1c37.3,0.7,77.1,4.5,104.9-8.399
		c26.399-12.3,41-34.5,61.899-45.101C1293.3,931.606,1319.1,959.406,1328.1,970.906 M1310.3,563.007
		c-10.899,49.6-22.899,94.3-26.199,157.3c-1.4,26.3-3.101,58-5.2,86c-2.2,29-3,62.9-12.601,82.8
		c-24.199,50.101-117.899,82.5-187.699,48.3c-61.9-30.399-50.101-137.199-38.801-221.3c9.4-69.5,26-117.2,35.7-188.8
		c-43.1-1.4-43.2,42.1-49.3,74.5c-6.2,33.2-15.6,69.6-19.9,102.8c-4.8,36.5-7.5,73.5-9.5,114.3c-2.1,44.9,2.9,97.9-13.6,126.9
		c-18.4,32.1-59.6,43.2-98.6,52.4c-45.601,10.699-86.301-2.601-107-35.7c-16.5-26.4-20.2-62.6-25.2-100.7
		c-4.9-37.1-7.2-78.899-6.3-117.399c2-84.301,19.1-150.2,29.399-219.2c-50.6-8.9-48.7,52.6-53.5,90.2
		c-10.7,85-14.7,177.699-10.5,276.899c2,48.801,10.7,107.7-10.5,140.5c-37.3,57.801-164.1,62.801-206.6,6.301
		c-39.601-52.601-33.3-158.801-27.3-243.301c4.899-68.699,10.199-127.3,27.3-182.5c5.5-17.8,15.399-36,8.399-56.6
		c-42.399-4.9-48.6,50.2-54.6,83.9c-14.1,79.899-16.1,168.899-19.9,259c-1.899,44.3,2.5,96.199-13.6,125.8
		c-15.7,28.899-73.3,50.3-116.4,27.3c-26.3-14-40.8-59.8-49.3-94.4c-11-45.199-15-84.8-22-121.699c-7.9-41.4-19.7-74.301-36.7-107
		c-16.1-30.9-31-73.7-12.6-111.2c10.5-21.4,27.7-39,39.8-59.8c12.101-20.601,24.601-41.4,36.7-62.9c27.9-49.5,51-116.6,108-133.2
		c32.4-9.399,69.8-8.2,104.9-13.6c32.1-5,64.1-14.101,88.1-29.4c19.4-12.399,31.6-36.6,52.4-45.1c19.6-8,46-3.3,70.3-1
		c24.5,2.3,49,1.5,68.2-7.3c18.5-8.5,32.899-22.4,49.3-33.601c33.7-22.7,93.2-66.6,150-36.7c21.6,11.3,36.3,36.1,57.7,50.3
		c29.8,19.8,74.5,25.899,119.5,23.1c47.8-3,93.699-6.8,124.8,13.6C1319.6,330.507,1332.8,460.807,1310.3,563.007 M1313.5,865.007
		c-3.8-22.601,2.7-44.601,5.2-67.101c6.8-59.8,5.399-122.899,16.8-176.199c15.3-71.801,33.4-147.2,17.8-224.4
		c-13.8-68.9-44.699-128.9-99.6-157.3c-63.1-32.6-157.2,7.8-222.3-25.2c-24.2-12.3-37.4-36.6-60.801-51.4
		c-15.899-10.1-33.8-12-58.699-17.8h-10.5c-27.101,8.6-57.801,15.2-84.9,30.4c-34,19.1-57.7,52.9-97.5,57.7
		c-47.9,5.8-88.7-17.1-132.2,5.3c-24.7,12.6-36.1,36.5-58.7,50.3c-46.1,28.1-107.399,19-161.5,29.4
		c-79.5,15.199-104.8,82.899-141.6,143.699c-35.8,59.101-77.1,111.601-95.4,189.801c0,0-4.3,18.1,0,44c4.3,26,31.6,56.3,40.9,89.1
		c26.6,94.2,31.6,220.4,88.1,286.3c25.8,30.101,69.2,39.9,121.601,35.7c24.2-1.9,45.7-11.5,68.199-11.5
		c23.601,0,45.301,7.1,67.101,13.6c37.5,11.2,93,16.4,140.5,8.4c38.5-6.5,102.1-28,134.2-3.1c10.699,8.3,12.899,27.8,15.699,44
		c2.7,15.3,6.7,30.8,10.5,41.899c20,58.5,82.601,67.601,152.101,73.4c70.6,5.899,137.3,13.8,203.5,22h49.3
		c65.2-9.101,91-58.2,117.4-105.9c18.899-34.1,35.8-65.399,45.1-104.899c11.1-47.2,1.3-85.7-18.9-120.601
		C1346.7,933.207,1319.9,903.007,1313.5,865.007"/>
</g>
<g>
	<defs>
		<rect id="XMLID_8_" x="127.5" y="145.606" width="2600" height="1150.5"/>
	</defs>
	<clipPath id="XMLID_14_">
		<use xlink:href="#XMLID_8_" />
	</clipPath>
	<path clip-path="url(#XMLID_14_)" fill="#231F20" d="M2665.899,728.707c-17.199,32.1-27.8,64.699-35.6,105.899
		c-10.2,52.9-16.7,125.3-39.8,174.101c-7.2,15.199-15.9,34.1-28.3,42c-39.601,25.1-102,6-119.601-21
		c-17.2-26.4-14.7-82.801-14.7-125.801c0-92.3-8.6-177.899-21-259c-5.399-35.399-7.199-89.5-51.399-88.1
		c-10.9,20.6,1.6,40.4,7.3,58.7c17.7,56.399,24.2,120.899,27.3,194c4.2,100.399,10,217.3-53.5,253.8
		c-59.7,34.3-154.5,14.6-182.5-30.4c-19.2-30.8-11.899-90.3-9.399-137.399c5-97-0.601-188.5-10.5-276.9
		c-4.2-37.5-2-100.1-51.4-94.399c-4.5,27.199,6.4,52,11.5,77.6c15.101,75,21,170.2,10.5,259c-7,58.7-16.199,107.3-56.6,130.1
		c-22.101,12.4-47.601,13.2-76.601,6.301c-44.8-10.7-88.699-22.4-104.899-64c-11.9-30.5-7.301-71.801-7.301-114.301
		c0-39.699-5-77.8-9.399-113.3c-4.3-33.7-11.101-70.2-18.9-103.8c-6.8-29.6-6.8-75.5-48.2-74.5c-3.1,39.5,10.301,62.6,17.801,93.3
		c7.1,29,11.699,64.9,15.699,96.5c9,69.5,23.301,171.4-22,209.8c-59.899,50.7-185.699,16.601-207.6-43c-7.7-20.8-8-49.1-9.4-73.399
		c-3-48.8-4.199-107.7-11.5-154.2c-10.6-66.9-39-136.4-29.399-215c5.399-44.4,18.8-93.4,39.8-125.9c14.6-22.6,35.2-40.3,67.1-47.199
		c33.4-7.2,67.9,2.899,105.9,2.1c37.1-0.7,69.6-6.7,94.4-19.9c34.399-18.399,51.199-60.1,100.699-64
		c59.801-4.7,96.7,31.8,131.101,57.7c11.5,8.7,24.101,19,37.7,24.101c39.3,14.699,100-7.7,134.199,5.199
		c20.801,7.9,31.601,33.101,53.5,46.2c27.5,16.4,55.7,23.8,92.301,29.4c42.899,6.5,96.699,4.7,127.899,27.2
		c35.4,25.6,56.5,79.6,79.7,120.6c18.8,33.1,36.8,62.3,58.7,92.3c6.6,9,14.6,18.5,19.899,29.3
		C2697.8,656.207,2682,698.406,2665.899,728.707 M1566.8,939.507c15.801-6.8,30.4,14.3,40.9,23.1c14.9,12.4,31.2,24.7,50.3,29.4
		c22.9,5.6,53.101,4.3,79.7,3.1c27.5-1.2,55.1-2.1,80.8-2.1c24.4,0,48.7,5,74.5,8.399c24.601,3.301,47.7,8.601,64,18.9
		c34.601,21.9,58.2,55.5,58.7,112.2c0.3,38.8-7.8,79.899-44,88.1c21.3-50.5,11-136-31.5-154.2c-23.7-10.1-54.6,0.601-78.7,4.2
		c-40.399,6.101-73.1,10.101-94.399,32.5c-33.601,35.4-17.4,114.9,10.5,140.5c-56.7,5-120.5,32.4-167.801,4.2
		c-23.899-14.3-47-58.1-62.899-84.9c-23.7-39.899-46.4-76-42-134.199C1508,988.507,1535.3,953.106,1566.8,939.507 M2685.8,552.507
		c-25.899-45.7-54.8-87.3-77.6-131.101c-25.601-49.1-51.801-86-109.101-99.6c-58.6-14-126.8-7.2-174.1-35.7
		c-21.2-12.8-31.3-35.399-54.5-47.2c-25.4-12.9-59.7-10-92.3-7.4c-35.301,2.9-63.601-1.8-86-15.7c-22-13.7-38.101-31.4-60.801-43
		c-22.8-11.7-45.6-18.9-76.6-27.3h-11.5c-62.5,4-78.3,44.3-116.4,67.1c-29,17.4-72.1,20.3-112.199,15.7
		c-40.301-4.6-78.9-5.6-111.2,10.5c-55.9,27.7-86,89.5-100.7,159.4c-17.8,84.699,4,154.899,18.9,226.5c11,52.699,9.3,121,16.8,178.3
		c3.2,24.7,8.5,50.3,1,72.3c-12.9,38.2-40.2,70.4-57.7,107c-18.7,39-18,89.5,0,135.3c14.5,37,37.4,74.4,57.7,107
		c20.2,32.4,46.899,65.101,94.399,71.3h50.4c68.8-7.5,132.2-16.699,201.4-22c33.8-2.6,68.6-5.3,96.5-15.699
		c45.3-16.9,57-46.801,68.199-97.5c3.4-15.4,5.601-36.2,13.601-44.101c26.3-25.6,85.3-8.5,115.399-2.1c40,8.6,90.101,10.5,129,3.1
		c37-7,72.5-27.199,117.5-21c18.9,2.601,38.301,10.2,58.7,11.5c125.601,8.4,150.101-83.1,171-180.399
		c8.5-39.601,16.4-80.601,24.101-116.4c4.1-19,8.699-37.5,16.8-53.5c7.899-15.6,17.7-29.4,24.101-46.2
		C2742.601,654.007,2707.7,591.106,2685.8,552.507"/>
</g>
<g>
	<defs>
		<rect id="XMLID_6_" x="127.5" y="145.606" width="2600" height="1150.5"/>
	</defs>
	<clipPath id="XMLID_15_">
		<use xlink:href="#XMLID_6_" />
	</clipPath>
	<path clip-path="url(#XMLID_15_)" fill="#EB008B" d="M1753.5,705.007c3.5-15.3,3.5-44.5,0-59.8c-36.7,0.699-89.8-1.5-124.8,1
		c-2.4,8.8-1,34-1,50.399c0,53.2,0,110.5,0,155.2c18.399,3.5,50.899,3.5,69.199,0c3.7-20.4-2.3-50.5,3.2-69.2
		c13.2-3.6,35.7,2.2,47.2-3.1c1.2-15.2,3-40-1.1-53.5c-11.9-2.4-37.101,4-47.2-3.101c-1.601-4.3-1.8-12.8,1-15.699
		C1715.5,704.007,1738,708.007,1753.5,705.007 M871.9,814.906c-2.9,0-6.101-0.399-9.5-1.199c-0.5-2.601-0.9-5.301-1.301-8.2
		c-1.699-14.601-1.3-32.8-0.6-49.101c0.3-6.1,0.6-11.899,0.8-17.199l0,0l0,0c19.8-6.7,32.5,4.1,37.8,19.399
		C907.1,781.507,898.4,814.707,871.9,814.906 M793.3,669.906c-1.5,0.601-2.6,1.601-3.1,3.101c0,63.399,0,141.1,0,204.5
		c15.1,2.5,32,1.1,49.3,1.1c17.8,0,37.3,1.7,52.4,0c53.199-6.1,85-55,80.8-113.3C966.3,679.007,893.7,661.906,793.3,669.906
		 M339.2,857.707c-2.5-42.801-0.2-95.301-1-136.4c-18-4.7-44.601-0.8-66.101-2.1c-1.5,0.6-2.6,1.6-3.1,3.1
		c-1.1,65.7-3.1,141.6,1,205.5c36.7,0,87.1,0,123.8,0c4.101-17.6,2.2-46.7,1-66.1C380.8,855.906,353.2,863.606,339.2,857.707
		 M1188.6,655.207c-4.6,6.3-7.3,14.8-10.5,23.1c-3,7.8-3.899,18.5-11.5,22c-11.5-10.9-11.199-33.5-22-45.1
		c-23.8-2.4-52.1-0.301-77.6-1c15.6,27.6,33.8,60.699,50.4,90.199c5.8,10.301,14.1,21.601,15.699,30.4c4.9,27.2-5.399,60,2.101,88.1
		c19.399,1.101,48.399,3.101,66.1-1.1c6.4-30.4-5-62.4,1-90.2c1.9-8.8,10.6-18.8,15.7-28.3c16-30.1,33-58.7,46.1-88.1
		C1241.4,653.507,1211.4,653.507,1188.6,655.207 M593,816.807c-5.2,1.5-16.2,2.1-19.9-1.1c-0.8-15,4.301-32.601,8.4-46.101h3.1
		C588.2,783.906,594.8,800.507,593,816.807 M638.1,737.106c-5.399-17.1-10.399-35-18.899-50.3c-22.101-1.1-54.101-3.1-74.5,1
		c-23.5,67.7-44.4,138.1-66.101,207.6c22.301-2,51.9-0.5,72.301-1c6.1-5.1,2.5-19.899,9.399-24.1c13.4-1.8,33.8-1.7,47.2,0
		c4.9,6.3,2.3,20.1,9.4,24.1c18.899-0.1,50.199,0.301,69.199,0c-1.699-17.899-9.199-35.1-14.699-52.399
		C660.4,806.606,649,771.707,638.1,737.106"/>
</g>
<path id="SVGID_1_" fill="#231F20" d="M2513.101,706.707c-18.101,0.1-36.2,0.3-53.9,0c-1.5,0.6-2.6,1.6-3.1,3.199
	c-1.801,19.2-1.7,45.801,0,65c5,2,11.3,1.301,17.399,0.601c6.899-0.8,13.5-1.5,18.2,1.399c3.8,43.4-2.4,96.801,3.199,138.4
	c19.7,1.1,49.2,3,67.101-1c3.8-43.4-2.399-96.8,3.101-138.4c4.899-1.6,10.8-1,16.8-0.399c6.2,0.6,12.5,1.3,17.8-0.601
	c1.1-19.699,3-49.199-1-67.1c-17.5-1-35.8-1.2-54.3-1.2C2534.101,706.606,2523.601,706.606,2513.101,706.707 M2191,779.106
	c3.5,25,23.7,40.101,48.7,46.101c13.6,3.199,29.6,1.699,30.3,12.6c0.601,10.2-11.5,13.3-24.899,11.5c-16.9-2.2-28.2-15.4-38.9-19.9
	c-8.3,18.2-15,37.9-21.6,57.7c62.6,41.4,167.5,16.8,160-61.899c-2.801-29.101-20.5-43.301-47.601-51.4
	c-11.2-3.4-31.899-5-32.399-14.7c-0.801-15.1,24.6-10.4,36.8-5.2c7.8,3.3,10.7,9.8,17.3,8.4c7.1-16.2,13.2-33.4,18.4-51.4
	c-17.7-12.899-38.9-19-59.7-19C2229,692.007,2183.3,724.606,2191,779.106 M1964.6,661.606c-16.899,0.101-33.899,0.3-50.399,0
	c-1.601,0.601-2.7,1.601-3.301,3.2c-1.1,65.7-3.399,141.6,1.101,205.6c40.2,0,95.1,0,135.399,0c3.7-14.6,3.7-43.1,0-57.699
	c-7.899-1.7-18.1-1.301-28.199-1c-11.9,0.399-23.9,0.8-32.2-2.101c-2.2-3.7-1.5-12.2,1.101-14.7c7.3-1.5,16.5-1.3,25.699-1
	c9.2,0.2,18.4,0.5,25.801-1.1c3.699-13.6,3.699-40.9,0-54.5c-5.2-1-12.801-0.5-20.7-0.1c-12.101,0.699-25.101,1.3-31.9-3.101
	c-2.2-2.8-1.2-9.6,0-12.6c7.5-3,18.5-2.5,29.601-2.101c11.1,0.4,22.199,0.9,29.699-2.1c1.2-15.9,3.2-41.4-1.1-55.6
	c-16.4-1-33.7-1.2-51.1-1.2C1984.3,661.406,1974.5,661.507,1964.6,661.606"/>
<g>
	<defs>
		<path id="XMLID_4_" d="M2513.101,706.707c-18.101,0.1-36.2,0.3-53.9,0c-1.5,0.6-2.6,1.6-3.1,3.199c-1.801,19.2-1.7,45.801,0,65
			c5,2,11.3,1.301,17.399,0.601c6.899-0.8,13.5-1.5,18.2,1.399c3.8,43.4-2.4,96.801,3.199,138.4c19.7,1.1,49.2,3,67.101-1
			c3.8-43.4-2.399-96.8,3.101-138.4c4.899-1.6,10.8-1,16.8-0.399c6.2,0.6,12.5,1.3,17.8-0.601c1.1-19.699,3-49.199-1-67.1
			c-17.5-1-35.8-1.2-54.3-1.2C2534.101,706.606,2523.601,706.606,2513.101,706.707 M2191,779.106c3.5,25,23.7,40.101,48.7,46.101
			c13.6,3.199,29.6,1.699,30.3,12.6c0.601,10.2-11.5,13.3-24.899,11.5c-16.9-2.2-28.2-15.4-38.9-19.9c-8.3,18.2-15,37.9-21.6,57.7
			c62.6,41.4,167.5,16.8,160-61.899c-2.801-29.101-20.5-43.301-47.601-51.4c-11.2-3.4-31.899-5-32.399-14.7
			c-0.801-15.1,24.6-10.4,36.8-5.2c7.8,3.3,10.7,9.8,17.3,8.4c7.1-16.2,13.2-33.4,18.4-51.4c-17.7-12.899-38.9-19-59.7-19
			C2229,692.007,2183.3,724.606,2191,779.106 M1964.6,661.606c-16.899,0.101-33.899,0.3-50.399,0c-1.601,0.601-2.7,1.601-3.301,3.2
			c-1.1,65.7-3.399,141.6,1.101,205.6c40.2,0,95.1,0,135.399,0c3.7-14.6,3.7-43.1,0-57.699c-7.899-1.7-18.1-1.301-28.199-1
			c-11.9,0.399-23.9,0.8-32.2-2.101c-2.2-3.7-1.5-12.2,1.101-14.7c7.3-1.5,16.5-1.3,25.699-1c9.2,0.2,18.4,0.5,25.801-1.1
			c3.699-13.6,3.699-40.9,0-54.5c-5.2-1-12.801-0.5-20.7-0.1c-12.101,0.699-25.101,1.3-31.9-3.101c-2.2-2.8-1.2-9.6,0-12.6
			c7.5-3,18.5-2.5,29.601-2.101c11.1,0.4,22.199,0.9,29.699-2.1c1.2-15.9,3.2-41.4-1.1-55.6c-16.4-1-33.7-1.2-51.1-1.2
			C1984.3,661.406,1974.5,661.507,1964.6,661.606"/>
	</defs>
	<clipPath id="XMLID_16_">
		<use xlink:href="#XMLID_4_" />
	</clipPath>
	<line clip-path="url(#XMLID_16_)" fill="#231F20" x1="2510.399" y1="408.106" x2="1947.9" y2="970.606"/>
</g>
<g>
	<defs>
		<path id="XMLID_2_" d="M2513.101,706.707c-18.101,0.1-36.2,0.3-53.9,0c-1.5,0.6-2.6,1.6-3.1,3.199c-1.801,19.2-1.7,45.801,0,65
			c5,2,11.3,1.301,17.399,0.601c6.899-0.8,13.5-1.5,18.2,1.399c3.8,43.4-2.4,96.801,3.199,138.4c19.7,1.1,49.2,3,67.101-1
			c3.8-43.4-2.399-96.8,3.101-138.4c4.899-1.6,10.8-1,16.8-0.399c6.2,0.6,12.5,1.3,17.8-0.601c1.1-19.699,3-49.199-1-67.1
			c-17.5-1-35.8-1.2-54.3-1.2C2534.101,706.606,2523.601,706.606,2513.101,706.707 M2191,779.106c3.5,25,23.7,40.101,48.7,46.101
			c13.6,3.199,29.6,1.699,30.3,12.6c0.601,10.2-11.5,13.3-24.899,11.5c-16.9-2.2-28.2-15.4-38.9-19.9c-8.3,18.2-15,37.9-21.6,57.7
			c62.6,41.4,167.5,16.8,160-61.899c-2.801-29.101-20.5-43.301-47.601-51.4c-11.2-3.4-31.899-5-32.399-14.7
			c-0.801-15.1,24.6-10.4,36.8-5.2c7.8,3.3,10.7,9.8,17.3,8.4c7.1-16.2,13.2-33.4,18.4-51.4c-17.7-12.899-38.9-19-59.7-19
			C2229,692.007,2183.3,724.606,2191,779.106 M1964.6,661.606c-16.899,0.101-33.899,0.3-50.399,0c-1.601,0.601-2.7,1.601-3.301,3.2
			c-1.1,65.7-3.399,141.6,1.101,205.6c40.2,0,95.1,0,135.399,0c3.7-14.6,3.7-43.1,0-57.699c-7.899-1.7-18.1-1.301-28.199-1
			c-11.9,0.399-23.9,0.8-32.2-2.101c-2.2-3.7-1.5-12.2,1.101-14.7c7.3-1.5,16.5-1.3,25.699-1c9.2,0.2,18.4,0.5,25.801-1.1
			c3.699-13.6,3.699-40.9,0-54.5c-5.2-1-12.801-0.5-20.7-0.1c-12.101,0.699-25.101,1.3-31.9-3.101c-2.2-2.8-1.2-9.6,0-12.6
			c7.5-3,18.5-2.5,29.601-2.101c11.1,0.4,22.199,0.9,29.699-2.1c1.2-15.9,3.2-41.4-1.1-55.6c-16.4-1-33.7-1.2-51.1-1.2
			C1984.3,661.406,1974.5,661.507,1964.6,661.606"/>
	</defs>
	<clipPath id="XMLID_17_">
		<use xlink:href="#XMLID_2_" />
	</clipPath>
	
		<line clip-path="url(#XMLID_17_)" fill="none" stroke="#231F20" stroke-width="0.707" x1="3060.101" y1="408.106" x2="2497.601" y2="970.606"/>
</g>
<g>
	<defs>
		<rect id="XMLID_1_" x="127.5" y="145.606" width="2600" height="1150.5"/>
	</defs>
	<clipPath id="XMLID_18_">
		<use xlink:href="#XMLID_1_" />
	</clipPath>
	<path clip-path="url(#XMLID_18_)" fill="#231F20" d="M2598.8,707.807c-44.399-2.4-93.3-0.3-139.5-1.1c-1.5,0.6-2.6,1.6-3.1,3.199
		c-1.801,19.2-1.7,45.801,0,65c10.699,4.2,26.8-3.5,35.6,2.101c3.801,43.399-2.399,96.8,3.2,138.399c19.7,1.101,49.2,3,67.101-1
		c3.8-43.399-2.4-96.8,3.1-138.5c10.1-3.399,24.2,2.7,34.6-1C2600.899,755.207,2602.8,725.807,2598.8,707.807z M2297,773.906
		c-11.2-3.399-31.899-5.1-32.399-14.699c-0.801-15.101,24.6-10.4,36.8-5.2c7.8,3.3,10.7,9.8,17.3,8.399
		c7.1-16.199,13.2-33.399,18.4-51.399c-58.7-43-157-9.7-146,68.2c3.5,25,23.699,40.1,48.699,46.1c13.601,3.2,29.601,1.7,30.301,12.6
		c0.6,10.2-11.5,13.301-24.9,11.5c-16.9-2.199-28.2-15.399-38.9-19.899c-8.3,18.199-15,37.899-21.6,57.699
		c62.6,41.4,167.5,16.801,160-61.899C2341.8,796.207,2324.101,781.906,2297,773.906z M1987,809.507c-2.2-3.7-1.5-12.2,1.101-14.7
		c14.699-3,36.8,0.9,51.5-2.1c3.699-13.601,3.699-40.9,0-54.5c-13.301-2.5-41.2,4.1-52.601-3.2c-2.2-2.8-1.2-9.601,0-12.601
		c14.899-5.899,44.399,1.7,59.3-4.199c1.2-15.9,3.2-41.4-1.1-55.601c-41.4-2.399-87.601-0.399-130.9-1.1c-1.6,0.6-2.7,1.6-3.4,3.2
		c-1.1,65.699-3.399,141.6,1.101,205.5c40.2,0,95.1,0,135.399,0c3.7-14.601,3.7-43.101,0-57.7
		C2030.101,808.906,2002.5,814.906,1987,809.507z"/>
</g>
<path fill="#EB008B" d="M901.5,1170.606c0-40,23.8-73.6,32.3-76.2c8.601-2.6,24.9,0.9,75.2,7.601c40.1,5.3,72,23.399,69.3,63.5
	c-3,45.3-20.8,77.6-50.5,80.1c-22.699,1.9-93.3-0.399-104-5.8C913.2,1234.606,901.5,1210.707,901.5,1170.606"/>
<path fill="#EB008B" d="M1776.8,1165.507c-2.699-40.101,29.301-58.2,69.301-63.5c50.3-6.7,66.699-10.2,75.199-7.601
	c8.601,2.601,32.4,36.2,32.4,76.2c0,40.101-11.7,64-22.4,69.3c-10.699,5.301-81.199,7.7-104,5.801
	C1797.6,1243.207,1779.8,1210.807,1776.8,1165.507"/>
<rect id="_x3C_Slice_x3E__25_" x="128" y="147" fill="none" width="2603" height="1146"/>
<rect id="_x3C_Slice_x3E__24_" x="123" y="120" fill="none" width="2613" height="1208"/>
<rect id="_x3C_Slice_x3E__23_" x="123" y="120" fill="none" width="2613" height="1208"/>
<rect id="_x3C_Slice_x3E__22_" x="123" y="120" fill="none" width="2613" height="1208"/>
<rect id="_x3C_Slice_x3E__21_" x="123" y="147" fill="none" width="2606" height="1172"/>
<rect id="_x3C_Slice_x3E__20_" x="123" y="147" fill="none" width="2606" height="1172"/>
<rect id="_x3C_Slice_x3E__19_" x="123" y="147" fill="none" width="2606" height="1172"/>
<rect id="_x3C_Slice_x3E__18_" x="93" y="99" fill="none" width="2726" height="1313"/>
<rect id="_x3C_Slice_x3E__17_" x="114" y="126" fill="none" width="383" height="456"/>
<rect id="_x3C_Slice_x3E__16_" x="114" y="126" fill="none" width="383" height="456"/>
<rect id="_x3C_Slice_x3E__15_" fill="none" width="3116" height="1475"/>
<rect id="_x3C_Slice_x3E__14_" x="102" y="114" fill="none" width="2654" height="1205"/>
</svg>
